<svg width="161" height="68" viewBox="0 0 161 68" fill="none" xmlns="http://www.w3.org/2000/svg">
<path d="M1.39061 66.75C0.463525 66.75 -1.62566e-05 66.4101 -1.62566e-05 65.7302C-1.62566e-05 65.174 0.40172 64.8031 1.20519 64.6177L3.33748 64.2469C4.6354 63.9997 5.46978 63.6597 5.84061 63.2271C6.27325 62.7944 6.48957 61.9292 6.48957 60.6313V6.11875C6.48957 4.82083 6.27325 3.95556 5.84061 3.52292C5.46978 3.09028 4.6354 2.75035 3.33748 2.50313L1.20519 2.13229C0.40172 1.94687 -1.62566e-05 1.57604 -1.62566e-05 1.01979C-1.62566e-05 0.339931 0.463525 1.0097e-06 1.39061 1.0097e-06H20.7667C24.4132 1.0097e-06 27.6271 0.803474 30.4083 2.41042C33.1896 3.95556 35.3528 6.11875 36.8979 8.9C38.443 11.6812 39.2156 14.8951 39.2156 18.5417C39.2156 22.0646 38.443 25.1858 36.8979 27.9052C35.3528 30.6247 33.2205 32.7569 30.501 34.3021C27.7816 35.7854 24.6295 36.5271 21.0448 36.5271H14.3698C13.5045 36.5271 13.0719 36.9597 13.0719 37.825V60.2604C13.0719 61.5583 13.3191 62.4545 13.8135 62.949C14.308 63.3816 15.4205 63.7524 17.151 64.0615L20.5812 64.6177C21.2611 64.7413 21.601 65.0812 21.601 65.6375C21.601 66.3792 21.1375 66.75 20.2104 66.75H1.39061ZM13.0719 29.1104C13.0719 32.5097 15.1423 34.2094 19.2833 34.2094C23.3007 34.2094 26.4528 32.7878 28.7396 29.9448C31.0882 27.1017 32.2625 23.208 32.2625 18.2635C32.2625 13.1955 31.0882 9.27083 28.7396 6.48958C26.391 3.70833 23.0535 2.31771 18.7271 2.31771C14.9569 2.31771 13.0719 3.55382 13.0719 6.02604V29.1104ZM57.5943 67.5844C54.6276 67.5844 51.97 66.5955 49.6214 64.6177C47.2728 62.6399 45.3877 59.8587 43.9662 56.274C42.6065 52.6274 41.9266 48.4247 41.9266 43.6656C41.9266 38.783 42.6374 34.4875 44.0589 30.7792C45.4804 27.0708 47.4273 24.166 49.8995 22.0646C52.3717 19.9632 55.1221 18.9125 58.1506 18.9125C61.7971 18.9125 64.7328 20.4267 66.9578 23.4552C69.2447 26.4219 70.3881 31.2736 70.3881 38.0104C70.3881 40.05 69.6155 41.0698 68.0703 41.0698H50.4558C49.2197 41.0698 48.6016 41.7806 48.6016 43.2021C48.6016 49.7535 49.5596 54.667 51.4756 57.9427C53.3915 61.2184 55.8328 62.8562 58.7995 62.8562C61.1481 62.8562 63.0641 62.0219 64.5474 60.3531C66.0308 58.6844 67.236 55.8722 68.1631 51.9167C68.3485 51.2368 68.7502 50.8969 69.3683 50.8969C70.1099 50.8969 70.3881 51.5149 70.2026 52.751C69.2138 58.2517 67.6377 62.1146 65.4745 64.3396C63.3113 66.5028 60.6846 67.5844 57.5943 67.5844ZM50.1776 38.7521H59.5412C62.5078 38.7521 63.9912 37.2069 63.9912 34.1167C63.9912 30.0993 63.4967 26.9472 62.5078 24.6604C61.519 22.3736 60.0356 21.2302 58.0578 21.2302C55.6474 21.2302 53.6078 22.6208 51.9391 25.4021C50.3322 28.1833 49.2815 32.1389 48.787 37.2687C48.6634 38.2576 49.1269 38.7521 50.1776 38.7521ZM84.894 67.5844C83.4725 67.5844 81.9582 67.399 80.3513 67.0281C78.7444 66.7191 77.4464 66.3174 76.4576 65.8229C75.9013 65.5139 75.6232 64.9885 75.6232 64.2469L75.3451 53.8635C75.3451 52.8128 75.7468 52.2875 76.5503 52.2875C77.2301 52.2875 77.6937 52.7819 77.9409 53.7708C78.9916 58.159 80.2586 61.1566 81.7419 62.7635C83.2871 64.3705 85.1412 65.174 87.3044 65.174C89.0968 65.174 90.5801 64.4941 91.7544 63.1344C92.9287 61.7128 93.5159 59.766 93.5159 57.2938C93.5159 54.8215 92.836 52.6274 91.4763 50.7115C90.1166 48.7955 87.8298 46.6941 84.6159 44.4073C81.402 42.2441 79.0534 40.0809 77.5701 37.9177C76.0867 35.6927 75.3451 33.2823 75.3451 30.6865C75.3451 27.1635 76.5812 24.3205 79.0534 22.1573C81.5256 19.9941 84.8013 18.9125 88.8805 18.9125C90.1166 18.9125 91.3218 19.067 92.4961 19.376C93.6704 19.6233 94.7211 20.0559 95.6482 20.674C96.2044 21.0448 96.4826 21.5392 96.4826 22.1573L96.668 32.3552C96.668 33.2823 96.2971 33.7458 95.5555 33.7458C95.1228 33.7458 94.8138 33.6222 94.6284 33.375C94.443 33.066 94.2885 32.6951 94.1648 32.2625C92.9287 28.2451 91.6926 25.4639 90.4565 23.9188C89.2204 22.3118 87.7062 21.5083 85.9138 21.5083C84.3069 21.5083 82.978 22.0646 81.9273 23.1771C80.8767 24.2896 80.3513 25.6802 80.3513 27.349C80.3513 29.5122 81.0003 31.3972 82.2982 33.0042C83.5961 34.6111 85.9447 36.5889 89.344 38.9375C92.4343 41.1625 94.752 43.5729 96.2971 46.1687C97.9041 48.7028 98.7076 51.484 98.7076 54.5125C98.7076 58.4681 97.4405 61.651 94.9065 64.0615C92.3725 66.4101 89.035 67.5844 84.894 67.5844ZM114.896 67.5844C112.733 67.5844 110.94 66.8427 109.519 65.3594C108.159 63.8142 107.479 61.3111 107.479 57.85V23.1771C107.479 22.4354 107.109 22.0646 106.367 22.0646H103.678C102.689 22.0646 102.195 21.6938 102.195 20.9521C102.195 20.4576 102.473 20.025 103.029 19.6542C105.069 18.2326 106.707 16.7184 107.943 15.1115C109.179 13.4427 110.261 11.1868 111.188 8.34375C111.62 7.04583 112.146 6.39688 112.764 6.39688C113.444 6.39688 113.784 6.89132 113.784 7.88021V18.1708C113.784 19.0361 114.216 19.4687 115.081 19.4687H121.107C122.096 19.4687 122.591 19.9014 122.591 20.7667C122.591 21.6319 122.096 22.0646 121.107 22.0646H115.081C114.216 22.0646 113.784 22.4972 113.784 23.3625V57.9427C113.784 59.3024 114 60.384 114.432 61.1875C114.865 61.9292 115.669 62.3 116.843 62.3C118.141 62.3 119.192 61.651 119.995 60.3531C120.86 59.0552 121.417 56.9538 121.664 54.049C121.787 53.1837 122.189 52.751 122.869 52.751C123.611 52.751 123.981 53.2146 123.981 54.1417C123.796 58.9007 122.807 62.3309 121.015 64.4323C119.284 66.5337 117.245 67.5844 114.896 67.5844ZM144.08 67.5844C140.928 67.5844 138.084 66.5337 135.55 64.4323C133.078 62.2691 131.1 59.3333 129.617 55.625C128.134 51.9167 127.392 47.7757 127.392 43.2021C127.392 38.6285 128.134 34.5184 129.617 30.8719C131.1 27.2253 133.109 24.3205 135.643 22.1573C138.177 19.9941 140.989 18.9125 144.08 18.9125C147.232 18.9125 150.044 19.9941 152.516 22.1573C155.05 24.3205 157.059 27.2253 158.542 30.8719C160.025 34.5184 160.767 38.6285 160.767 43.2021C160.767 47.7757 160.025 51.9167 158.542 55.625C157.121 59.3333 155.143 62.2691 152.609 64.4323C150.075 66.5337 147.232 67.5844 144.08 67.5844ZM144.08 65.2667C150.507 65.2667 153.721 57.9118 153.721 43.2021C153.721 28.5542 150.507 21.2302 144.08 21.2302C137.652 21.2302 134.438 28.5542 134.438 43.2021C134.438 57.9118 137.652 65.2667 144.08 65.2667Z" fill="#020000"/>
</svg>
