<svg width="165" height="121" viewBox="0 0 165 121" fill="none" xmlns="http://www.w3.org/2000/svg">
<path d="M3.15208 92C2.225 92 1.76146 91.6601 1.76146 90.9802C1.76146 90.424 2.16319 90.0531 2.96667 89.8677L5.09896 89.4969C6.39688 89.2497 7.23125 88.9097 7.60208 88.4771C8.03472 88.0444 8.25104 87.1792 8.25104 85.8813V31.3687C8.25104 30.0708 8.03472 29.2056 7.60208 28.7729C7.23125 28.3403 6.39688 28.0003 5.09896 27.7531L2.96667 27.3823C2.16319 27.1969 1.76146 26.826 1.76146 26.2698C1.76146 25.5899 2.225 25.25 3.15208 25.25H22.5281C26.1747 25.25 29.3885 26.0535 32.1698 27.6604C34.951 29.2056 37.1142 31.3688 38.6594 34.15C40.2045 36.9312 40.9771 40.1451 40.9771 43.7917C40.9771 47.3146 40.2045 50.4358 38.6594 53.1552C37.1142 55.8747 34.9819 58.0069 32.2625 59.5521C29.5431 61.0354 26.391 61.7771 22.8062 61.7771H16.1313C15.266 61.7771 14.8333 62.2097 14.8333 63.075V85.5104C14.8333 86.8083 15.0806 87.7045 15.575 88.199C16.0694 88.6316 17.1819 89.0024 18.9125 89.3115L22.3427 89.8677C23.0226 89.9913 23.3625 90.3312 23.3625 90.8875C23.3625 91.6292 22.899 92 21.9719 92H3.15208ZM14.8333 54.3604C14.8333 57.7597 16.9038 59.4594 21.0448 59.4594C25.0622 59.4594 28.2142 58.0378 30.501 55.1948C32.8497 52.3517 34.024 48.458 34.024 43.5135C34.024 38.4455 32.8497 34.5208 30.501 31.7396C28.1524 28.9583 24.8149 27.5677 20.4885 27.5677C16.7184 27.5677 14.8333 28.8038 14.8333 31.276V54.3604ZM59.3558 92.8344C56.3891 92.8344 53.7315 91.8455 51.3829 89.8677C49.0343 87.8899 47.1492 85.1087 45.7277 81.524C44.3679 77.8774 43.6881 73.6747 43.6881 68.9156C43.6881 64.033 44.3988 59.7375 45.8204 56.0292C47.2419 52.3208 49.1888 49.416 51.661 47.3146C54.1332 45.2132 56.8836 44.1625 59.912 44.1625C63.5586 44.1625 66.4943 45.6767 68.7193 48.7052C71.0061 51.6719 72.1495 56.5236 72.1495 63.2604C72.1495 65.3 71.377 66.3198 69.8318 66.3198H52.2172C50.9811 66.3198 50.3631 67.0306 50.3631 68.4521C50.3631 75.0035 51.3211 79.917 53.237 83.1927C55.153 86.4684 57.5943 88.1062 60.561 88.1062C62.9096 88.1062 64.8256 87.2719 66.3089 85.6031C67.7922 83.9344 68.9974 81.1222 69.9245 77.1667C70.1099 76.4868 70.5117 76.1469 71.1297 76.1469C71.8714 76.1469 72.1495 76.7649 71.9641 78.001C70.9752 83.5017 69.3992 87.3646 67.236 89.5896C65.0728 91.7528 62.4461 92.8344 59.3558 92.8344ZM51.9391 64.0021H61.3027C64.2693 64.0021 65.7527 62.4569 65.7527 59.3667C65.7527 55.3493 65.2582 52.1972 64.2693 49.9104C63.2804 47.6236 61.7971 46.4802 59.8193 46.4802C57.4089 46.4802 55.3693 47.8708 53.7006 50.6521C52.0936 53.4333 51.0429 57.3889 50.5485 62.5187C50.4249 63.5076 50.8884 64.0021 51.9391 64.0021ZM86.6555 92.8344C85.234 92.8344 83.7197 92.649 82.1128 92.2781C80.5058 91.9691 79.2079 91.5674 78.219 91.0729C77.6628 90.7639 77.3847 90.2385 77.3847 89.4969L77.1065 79.1135C77.1065 78.0628 77.5083 77.5375 78.3117 77.5375C78.9916 77.5375 79.4551 78.0319 79.7024 79.0208C80.7531 83.409 82.0201 86.4066 83.5034 88.0135C85.0485 89.6205 86.9027 90.424 89.0659 90.424C90.8583 90.424 92.3416 89.7441 93.5159 88.3844C94.6902 86.9628 95.2774 85.016 95.2774 82.5438C95.2774 80.0715 94.5975 77.8774 93.2378 75.9615C91.8781 74.0455 89.5913 71.9441 86.3774 69.6573C83.1635 67.4941 80.8149 65.3309 79.3315 63.1677C77.8482 60.9427 77.1065 58.5323 77.1065 55.9365C77.1065 52.4135 78.3426 49.5705 80.8149 47.4073C83.2871 45.2441 86.5628 44.1625 90.6419 44.1625C91.8781 44.1625 93.0833 44.317 94.2576 44.626C95.4319 44.8733 96.4826 45.3059 97.4097 45.924C97.9659 46.2948 98.244 46.7892 98.244 47.4073L98.4294 57.6052C98.4294 58.5323 98.0586 58.9958 97.3169 58.9958C96.8843 58.9958 96.5753 58.8722 96.3899 58.625C96.2044 58.316 96.0499 57.9451 95.9263 57.5125C94.6902 53.4951 93.4541 50.7139 92.218 49.1688C90.9819 47.5618 89.4676 46.7583 87.6753 46.7583C86.0683 46.7583 84.7395 47.3146 83.6888 48.4271C82.6381 49.5396 82.1128 50.9302 82.1128 52.599C82.1128 54.7622 82.7617 56.6472 84.0597 58.2542C85.3576 59.8611 87.7062 61.8389 91.1055 64.1875C94.1958 66.4125 96.5135 68.8229 98.0586 71.4187C99.6656 73.9528 100.469 76.734 100.469 79.7625C100.469 83.7181 99.202 86.901 96.668 89.3115C94.134 91.6601 90.7965 92.8344 86.6555 92.8344ZM116.657 92.8344C114.494 92.8344 112.702 92.0927 111.28 90.6094C109.921 89.0642 109.241 86.5611 109.241 83.1V48.4271C109.241 47.6854 108.87 47.3146 108.128 47.3146H105.44C104.451 47.3146 103.956 46.9438 103.956 46.2021C103.956 45.7076 104.235 45.275 104.791 44.9042C106.83 43.4826 108.468 41.9684 109.704 40.3615C110.94 38.6927 112.022 36.4368 112.949 33.5937C113.382 32.2958 113.907 31.6469 114.525 31.6469C115.205 31.6469 115.545 32.1413 115.545 33.1302V43.4208C115.545 44.2861 115.978 44.7187 116.843 44.7187H122.869C123.858 44.7187 124.352 45.1514 124.352 46.0167C124.352 46.8819 123.858 47.3146 122.869 47.3146H116.843C115.978 47.3146 115.545 47.7472 115.545 48.6125V83.1927C115.545 84.5524 115.761 85.634 116.194 86.4375C116.627 87.1792 117.43 87.55 118.604 87.55C119.902 87.55 120.953 86.901 121.756 85.6031C122.622 84.3052 123.178 82.2038 123.425 79.299C123.549 78.4337 123.951 78.001 124.63 78.001C125.372 78.001 125.743 78.4646 125.743 79.3917C125.557 84.1507 124.569 87.5809 122.776 89.6823C121.046 91.7837 119.006 92.8344 116.657 92.8344ZM145.841 92.8344C142.689 92.8344 139.846 91.7837 137.312 89.6823C134.84 87.5191 132.862 84.5833 131.379 80.875C129.895 77.1667 129.154 73.0257 129.154 68.4521C129.154 63.8785 129.895 59.7684 131.379 56.1219C132.862 52.4753 134.871 49.5705 137.405 47.4073C139.939 45.2441 142.751 44.1625 145.841 44.1625C148.993 44.1625 151.805 45.2441 154.278 47.4073C156.812 49.5705 158.82 52.4753 160.304 56.1219C161.787 59.7684 162.529 63.8785 162.529 68.4521C162.529 73.0257 161.787 77.1667 160.304 80.875C158.882 84.5833 156.904 87.5191 154.37 89.6823C151.836 91.7837 148.993 92.8344 145.841 92.8344ZM145.841 90.5167C152.269 90.5167 155.483 83.1618 155.483 68.4521C155.483 53.8042 152.269 46.4802 145.841 46.4802C139.413 46.4802 136.199 53.8042 136.199 68.4521C136.199 83.1618 139.413 90.5167 145.841 90.5167Z" fill="#1D7A3F"/>
</svg>
